<svg width="270" height="62" fill="none" xmlns="http://www.w3.org/2000/svg"><path d="M105.432 37.262c0 3.875-5.291 5.864-10.798 5.864-7.141 0-11.585-3.314-11.585-8.897V23.054c0-5.583 4.219-8.897 11.36-8.897 7.141 0 10.686 3.314 10.686 8.345 0 4.478-3.095 8.183-11.36 8.183-1.91 0-4.842-.382-6.19-1.325v4.036c0 3.866 2.196 5.863 7.426 5.863 4.894 0 9-1.988 9-5.863 1.012 1.436 1.461 2.702 1.461 3.866zM87.553 25.816c.06.11 3.433.994 5.853.994 5.343 0 7.202-1.597 7.202-4.308 0-2.821-1.574-4.75-6.19-4.75-5.006 0-6.865 2.268-6.865 6.135v1.929zm47.741-7.52l4.556 14.37c1.461 4.698 2.698 8.565 3.657 10.01 0 0-.501.17-1.461.17-4.504 0-5.68-4.98-6.977-9.119l-1.124-3.594h-16.193l-1.072 3.594c-1.236 4.139-2.472 9.119-6.968 9.119-.96 0-1.461-.17-1.461-.17.899-1.437 2.135-5.303 3.657-10.01l4.556-14.37c3.769-11.94 9.501-15.373 9.45-15.424-.061.06 5.559 3.484 9.38 15.424zm-16.357 8.021h13.832l-1.971-6.577c-2.248-7.52-4.945-10.673-4.893-10.673 0 0-2.758 3.153-5.006 10.673l-1.962 6.577zm37.841-12.168c5.793 0 10.401 1.546 10.401 5.302 0 1.216-.502 2.711-1.626 4.428 0-3.816-2.982-5.864-8.775-5.864-5.231 0-6.527 1.436-6.527 4.759 0 6.577 18.112-.884 18.112 11.94 0 5.03-3.882 8.404-11.585 8.404-5.905 0-10.859-1.598-10.859-5.473 0-1.215.45-2.6 1.522-4.257 0 3.866 3.545 5.863 9.328 5.863 5.793 0 7.09-2.048 7.09-4.81 0-7.962-18.113-.05-18.113-11.659.009-5.591 3.891-8.633 11.032-8.633zm27.112 0c5.793 0 10.401 1.546 10.401 5.302 0 1.216-.501 2.711-1.625 4.428 0-3.816-2.983-5.864-8.776-5.864-5.23 0-6.527 1.436-6.527 4.759 0 6.577 18.112-.884 18.112 11.94 0 5.03-3.881 8.404-11.585 8.404-5.904 0-10.858-1.598-10.858-5.473 0-1.215.449-2.6 1.513-4.257 0 3.866 3.544 5.863 9.337 5.863 5.792 0 7.08-2.048 7.08-4.81 0-7.962-18.112-.05-18.112-11.659.017-5.591 3.899-8.633 11.04-8.633zm17.767-9.619h3.545c.501 0 .959.5.959.994v3.645h-3.493a.999.999 0 01-1.011-.994V4.529zm0 9.9s4.504-.06 4.504 2.76v25.647s-4.504 0-4.504-2.762V14.43zm21.709-.281c5.792 0 10.409 1.546 10.409 5.302 0 1.216-.51 2.711-1.625 4.428 0-3.816-2.983-5.864-8.775-5.864-5.222 0-6.528 1.436-6.528 4.759 0 6.577 18.113-.884 18.113 11.94 0 5.03-3.882 8.404-11.585 8.404-5.905 0-10.851-1.598-10.851-5.473 0-1.215.45-2.6 1.513-4.257 0 3.866 3.545 5.863 9.338 5.863 5.792 0 7.089-2.048 7.089-4.81 0-7.962-18.112-.05-18.112-11.659-.009-5.591 3.873-8.633 11.014-8.633zm17.775-5.915s4.496.051 4.496 2.822v4.588h11.758s-.061 3.816-2.81 3.816h-8.948v13.214c0 3.977 1.409 6.577 5.844 6.577 3.882 0 7.202-2.099 7.202-5.863 1.072 1.546 1.522 2.931 1.522 4.095 0 3.756-4.617 5.634-9.173 5.634-6.018 0-9.899-3.314-9.899-8.897V8.234h.008z" fill="#414042"/><path d="M84.726 55.983c-.069 0-.752-.017-.752-.45v-5.83h2.42c1.34 0 2.612.45 2.612 2.074v2.133c0 1.623-1.271 2.073-2.611 2.073h-1.669zm.017-5.66v5.04h1.652c1.029 0 1.841-.374 1.841-1.547v-1.963c0-1.172-.812-1.538-1.841-1.538h-1.651v.009zm12.597 2.55v2.49h3.259c0 .034-.008.62-.458.62H97.34s-.77 0-.77-.45v-5.83h4.029s0 .62-.458.62H97.34v1.93h2.11c.622 0 .786-.136.786-.136 0 .272-.086.756-.64.756H97.34zm14.481 1.53l.415.68s-.086-.468-.086-.74v-4.64s.769 0 .769.45v5.924c-.977 0-1.245-.587-1.245-.587l-3.069-4.869s.087.433.087.807v4.649s-.77 0-.77-.45v-5.924c.519 0 .951 0 1.236.45l2.663 4.25zm10.894-4.079v5.753s-.77 0-.77-.45v-5.303h-1.444c-.553 0-.639-.485-.639-.757 0 0 .164.136.786.136h3.389c.623 0 .787-.136.787-.136 0 .264-.086.757-.64.757h-1.469zm12.069 1.733l.743 2.328c.234.765.441 1.386.597 1.623 0 0-.087.026-.242.026-.726 0-.917-.807-1.124-1.479l-.182-.586h-2.628l-.173.586c-.199.672-.406 1.479-1.132 1.479-.156 0-.234-.026-.234-.026.147-.238.346-.858.597-1.623l.735-2.328c.613-1.938 1.539-2.498 1.53-2.507-.017.017.899.57 1.513 2.507zm-2.654 1.3h2.239l-.32-1.07c-.363-1.216-.804-1.734-.795-1.734 0 0-.45.51-.813 1.733l-.311 1.071zm11.688 2.626s-.769 0-.769-.45v-5.915s.769 0 .769.442v5.303h2.266c.622 0 .786-.136.786-.136 0 .263-.078.756-.458.756h-2.594zm20.611-.553c1.029 0 1.583-.475 1.583-1.197 0-1.887-4.055-.425-4.055-2.839 0-1.376 1.089-1.801 2.429-1.801 1.09 0 2.205.178 2.205 1.028 0 .204-.069.442-.208.73 0-.942-.968-1.087-1.997-1.087-.985 0-1.625.264-1.625 1.054 0 1.7 4.055.187 4.055 2.872 0 1.266-1.038 1.904-2.378 1.904-1.089 0-2.334-.179-2.334-1.037 0-.196.06-.442.207-.714-.008.926 1.09 1.088 2.118 1.088zm14.715-1.333c0 1.249-.804 1.988-2.524 1.988-1.721 0-2.516-.74-2.516-1.988V51.59c0-1.25.795-1.997 2.516-1.997 1.72 0 2.524.748 2.524 1.997v2.507zm-.769-2.397c0-.934-.286-1.487-1.764-1.487-1.461 0-1.746.553-1.746 1.487v2.286c0 .926.285 1.487 1.746 1.487 1.478 0 1.764-.552 1.764-1.487V51.7zm9.103 4.283s-.769 0-.769-.45v-5.915s.769 0 .769.442v5.303h2.265c.623 0 .787-.136.787-.136 0 .263-.078.756-.449.756h-2.603zm14.974-1.785c0 1.267-1.175 1.887-2.516 1.887-1.348 0-2.515-.629-2.515-1.887v-4.58s.76 0 .76.442v4.002c0 .901.727 1.369 1.755 1.369 1.029 0 1.756-.468 1.756-1.368v-4.445s.769 0 .769.442v4.138h-.009zm9.614-3.874v5.753s-.761 0-.761-.45v-5.303h-1.443c-.554 0-.64-.485-.64-.757 0 0 .164.136.787.136h3.389c.622 0 .786-.136.786-.136 0 .264-.086.757-.639.757h-1.479zm9.052-.714s.761 0 .761.441v6.017s-.761 0-.761-.45V49.61zm13.366 4.487c0 1.249-.804 1.988-2.516 1.988-1.72 0-2.516-.74-2.516-1.988V51.59c0-1.25.796-1.997 2.516-1.997 1.712 0 2.516.748 2.516 1.997v2.507zm-.761-2.397c0-.934-.285-1.487-1.763-1.487-1.462 0-1.747.553-1.747 1.487v2.286c0 .926.285 1.487 1.747 1.487 1.478 0 1.763-.552 1.763-1.487V51.7zm12.216 2.703l.424.68s-.086-.468-.086-.74v-4.64s.76 0 .76.45v5.924c-.977 0-1.236-.587-1.236-.587l-3.069-4.869s.095.433.095.807v4.649s-.769 0-.769-.45v-5.924c.518 0 .951 0 1.236.45l2.645 4.25zm10.954 1.027c1.029 0 1.582-.475 1.582-1.197 0-1.887-4.054-.425-4.054-2.839 0-1.376 1.08-1.801 2.42-1.801 1.09 0 2.205.178 2.205 1.028 0 .204-.06.442-.207.73 0-.942-.969-1.087-1.998-1.087-.985 0-1.625.264-1.625 1.054 0 1.7 4.055.187 4.055 2.872 0 1.266-1.046 1.904-2.386 1.904-1.081 0-2.335-.179-2.335-1.037 0-.196.061-.442.208-.714.008.926 1.106 1.088 2.135 1.088z" fill="#808285"/><path d="M265.271 41.265h.605v-1.691h.657l1.089 1.691h.658l-1.15-1.742c.596-.06 1.054-.366 1.054-1.08 0-.756-.449-1.121-1.4-1.121h-1.504v3.943h-.009zm.605-3.45h.804c.415 0 .891.06.891.603 0 .638-.528.663-1.072.663h-.623v-1.266zm-2.723 1.487c0 1.92 1.556 3.365 3.423 3.365 1.859 0 3.424-1.445 3.424-3.365 0-1.92-1.565-3.365-3.424-3.365-1.867 0-3.423 1.445-3.423 3.365zm.605 0c0-1.632 1.245-2.88 2.818-2.88 1.565 0 2.819 1.248 2.819 2.88s-1.254 2.88-2.819 2.88c-1.573 0-2.818-1.248-2.818-2.88z" fill="#414042"/><path d="M49.643 38.775C56.308 21.465 46.115 1.903 32.317 0l-.76 35.733 18.077 3.042h.009z" fill="#D93A31"/><path d="M21.009 49.16c11.714 14.403 33.821 15.397 42.38 4.444L32.317 34.977 21.009 49.159z" fill="#FAA61A"/><path d="M26.291 19.264C7.911 22.171-4.003 40.738 1.245 53.604l31.072-17.115L26.3 19.281l-.009-.017z" fill="#42C1C7"/><path d="M14.983 38.775C8.317 21.465 18.51 1.903 32.317 0v35.733L15 38.775h-.017z" fill="#EF4136"/><path d="M43.625 49.16c-11.714 14.403-33.83 15.389-42.38 4.435l31.072-17.862 11.308 13.426z" fill="#64CADC"/><path d="M38.334 19.264c18.38 2.898 30.294 21.474 25.055 34.331l-31.072-17.87 6.009-16.46h.008z" fill="#FBB040"/><path d="M49.893 35.733c0 9.67-7.876 17.505-17.585 17.505s-17.585-7.835-17.585-17.505c0-9.67 7.876-17.514 17.585-17.514 9.718 0 17.585 7.843 17.585 17.514z" fill="#fff"/><path d="M28.513 46.321c-.847-.527-1.444-1.25-1.755-2.2a5.526 5.526 0 01-.25-1.99 40.41 40.41 0 01.18-2.277c.087-.85.182-1.7.174-2.557-.018-.952-.268-1.844-.64-2.703-.329-.756-.649-1.512-.96-2.269-.302-.73-.562-1.47-.692-2.252-.103-.67-.12-1.325.148-1.963.207-.5.57-.875 1.02-1.172a2.366 2.366 0 011.34-.391c.458 0 .899.102 1.297.297.665.323 1.305.689 1.945 1.037.147.076.302.17.45.247.414.203.838.39 1.322.356a.96.96 0 01-.735.162c-.51-.077-1.011-.187-1.521-.298-.502-.11-.995-.246-1.513-.204-.528.034-.917.28-1.15.757-.26.527-.337 1.07-.285 1.648.077.893.371 1.725.657 2.558.207.637.423 1.266.518 1.938a7.72 7.72 0 01.026 1.733c-.095 1.156-.337 2.278-.527 3.416-.147.85-.25 1.708-.225 2.575.043 1.266.398 2.439 1.133 3.484.026.017.034.043.043.068z" fill="#A7A9AC"/><path d="M28.738 46.576l-.277-.178c-.89-.561-1.496-1.318-1.798-2.252a5.74 5.74 0 01-.25-2.014 39.36 39.36 0 01.18-2.286l.035-.315c.078-.73.156-1.487.139-2.234-.01-.842-.225-1.708-.632-2.677-.363-.841-.674-1.58-.96-2.26-.259-.646-.553-1.428-.7-2.278-.138-.824-.086-1.445.156-2.014.208-.484.545-.875 1.055-1.215a2.482 2.482 0 011.375-.408c.5 0 .95.11 1.357.314.467.23.934.485 1.392.731.181.102.372.204.562.306.06.026.112.06.173.094.086.05.181.101.276.152.39.196.804.383 1.262.349l.346-.026-.276.196c-.234.161-.519.23-.804.178a24.273 24.273 0 01-1.53-.297l-.2-.043c-.44-.093-.847-.187-1.288-.161-.501.034-.855.263-1.072.705-.233.476-.328.994-.276 1.598.069.807.328 1.58.579 2.328l.07.204c.215.62.423 1.266.526 1.955.07.526.078 1.104.026 1.759-.069.858-.224 1.716-.371 2.549l-.156.875c-.13.808-.26 1.674-.225 2.55.044 1.291.415 2.447 1.116 3.433a.745.745 0 01.051.085l.139.297zM27.086 26.64a2.29 2.29 0 00-1.288.374c-.475.315-.795.689-.985 1.13-.225.536-.268 1.13-.139 1.913.139.832.424 1.597.683 2.234.277.68.597 1.42.96 2.26.424.986.64 1.879.648 2.745.009.757-.069 1.522-.138 2.26l-.026.315a39.94 39.94 0 00-.181 2.27 5.36 5.36 0 00.242 1.954 3.793 3.793 0 001.322 1.87c-.57-.936-.881-2.006-.925-3.187-.034-.901.087-1.776.225-2.592l.156-.884c.147-.824.302-1.674.372-2.524a7.446 7.446 0 00-.035-1.716c-.095-.672-.311-1.3-.519-1.92l-.069-.205c-.26-.756-.527-1.546-.588-2.37-.052-.638.043-1.199.294-1.7.25-.502.666-.774 1.236-.808.459-.034.908.069 1.34.17l.2.043c.475.102.994.212 1.512.289a.804.804 0 00.286 0c-.329-.06-.64-.196-.934-.34-.095-.051-.182-.102-.285-.153a1.106 1.106 0 00-.173-.094 46.401 46.401 0 00-.562-.305c-.45-.247-.917-.493-1.384-.731a2.688 2.688 0 00-1.245-.298z" fill="#808285"/><path d="M37.746 30.55c.07-.834-.268-1.182-1.072-1.445-.518-.17-1.046-.145-1.556.025-.666.221-1.323.476-1.98.731-.501.195-1.003.4-1.539.493-.735.136-1.374-.009-1.867-.604-.017-.017-.035-.042-.052-.059.199.076.39.162.597.213.527.127 1.046.05 1.53-.154a19.473 19.473 0 001.53-.764c.648-.357 2.213-1.853 2.914-2.125a2.93 2.93 0 011.297-.297c.484-.009.942.119 1.348.39.45.298.804.672 1.02 1.174.268.637.251 1.291.147 1.962-.13.782-.389 1.521-.691 2.252-.312.757-.631 1.513-.96 2.27-.38.866-.631 1.758-.64 2.701-.017.859.087 1.709.165 2.567.077.756.147 1.52.181 2.277a5.363 5.363 0 01-.25 1.989c-.312.951-.917 1.665-1.756 2.2.009-.025.026-.042.044-.067.734-1.046 1.089-2.218 1.132-3.485.035-.866-.078-1.724-.225-2.574-.181-1.139-.423-2.26-.527-3.416a8.297 8.297 0 01.026-1.734c.095-.671.311-1.3.519-1.937.285-.859.587-1.691.665-2.584z" fill="#A7A9AC"/><path d="M35.896 46.576l.139-.297c.008-.026.034-.051.043-.077.7-.985 1.072-2.141 1.115-3.433.035-.875-.086-1.742-.216-2.55l-.156-.866c-.147-.833-.302-1.691-.371-2.55a7.802 7.802 0 01.034-1.758c.095-.68.32-1.326.527-1.955l.078-.23c.251-.739.51-1.512.58-2.31.06-.748-.182-1.071-1.012-1.352-.467-.153-.977-.144-1.496.026-.562.178-1.132.4-1.677.612l-.432.17c-.45.178-.925.356-1.418.441-.821.145-1.478-.068-1.954-.637-.008-.008-.026-.025-.035-.042l-.233-.28.329.118c.06.026.12.043.181.068.139.051.268.102.398.136.467.12.968.068 1.47-.153.45-.195.916-.433 1.521-.765.268-.153.718-.518 1.193-.9.649-.527 1.323-1.08 1.738-1.233a2.908 2.908 0 011.323-.306c.527 0 .994.137 1.4.408.502.34.848.731 1.055 1.216.242.569.285 1.19.156 2.013-.147.85-.433 1.624-.7 2.278-.277.671-.588 1.419-.96 2.269-.415.96-.623 1.835-.631 2.668-.018.73.06 1.479.13 2.193l.034.356c.095.893.147 1.615.182 2.278a5.639 5.639 0 01-.251 2.014c-.303.934-.908 1.7-1.798 2.252l-.286.178zm.052-17.684c.26 0 .51.043.752.12.761.254 1.22.603 1.142 1.546-.07.824-.329 1.598-.588 2.354l-.078.23c-.208.62-.415 1.257-.519 1.92a7.98 7.98 0 00-.026 1.716c.07.85.225 1.708.372 2.532l.155.876c.139.816.26 1.7.225 2.592-.043 1.18-.346 2.26-.916 3.195.631-.502 1.08-1.122 1.323-1.87.19-.595.276-1.249.242-1.954a51.508 51.508 0 00-.182-2.27l-.034-.356c-.07-.722-.147-1.47-.13-2.218.017-.867.225-1.759.648-2.745.363-.85.683-1.589.96-2.26.26-.637.545-1.402.683-2.235.13-.79.086-1.377-.138-1.912-.19-.442-.51-.816-.986-1.13a2.271 2.271 0 00-1.27-.374c-.468 0-.891.102-1.272.289-.389.153-1.08.714-1.694 1.207-.484.39-.934.756-1.22.917-.605.332-1.08.57-1.538.774-.536.238-1.08.289-1.582.161a2.112 2.112 0 01-.216-.068c.406.34.916.45 1.547.332.476-.085.942-.264 1.383-.434l.441-.17a35.634 35.634 0 011.677-.62 2.55 2.55 0 01.84-.145z" fill="#808285"/><path d="M29.438 44.443c.112-.4.225-.799.32-1.198.147-.62.277-1.24.415-1.87.25-1.155.51-2.311.96-3.407a6.871 6.871 0 011.106-1.853 1.77 1.77 0 01.121-.127c.139-.11.294-.11.415.025a1.3 1.3 0 01.25.4c.165.459.312.909.45 1.376.182.62.355 1.241.536 1.878a14.726 14.726 0 01-.294-.645c-.164-.366-.31-.731-.475-1.088a1.881 1.881 0 00-.25-.391c-.174-.221-.346-.221-.537-.026-.536.544-.925 1.182-1.245 1.87-.432.918-.709 1.895-1.02 2.855-.216.689-.458 1.377-.683 2.057-.017.05-.034.102-.069.144z" fill="#A7A9AC"/><path d="M29.49 44.58l-.07-.035h-.103l.13-.459c.078-.289.155-.57.216-.858.155-.646.294-1.317.415-1.861.233-1.08.501-2.303.968-3.425.311-.739.675-1.35 1.115-1.878a1.04 1.04 0 01.139-.136c.181-.144.397-.127.544.043.087.11.208.255.268.425.147.4.286.841.45 1.376.112.391.225.774.329 1.156l.207.714-.182.068c-.095-.221-.198-.434-.293-.654-.07-.153-.13-.315-.2-.468a13.356 13.356 0 00-.267-.62 2.206 2.206 0 00-.234-.374c-.138-.17-.25-.17-.397-.017-.476.484-.882 1.088-1.228 1.836-.363.773-.623 1.597-.873 2.387l-.139.45-.492 1.48-.2.586a.59.59 0 01-.043.11l-.06.153zm3.078-8.575a.236.236 0 00-.147.06c-.052.033-.078.076-.121.11-.424.501-.778 1.096-1.081 1.818-.467 1.114-.726 2.329-.96 3.4-.069.305-.138.654-.224 1.01.017-.067.043-.127.06-.195l.138-.45c.251-.799.51-1.632.882-2.414.363-.773.778-1.385 1.262-1.895.234-.246.476-.229.683.026.104.136.19.272.26.408.078.161.147.331.216.493-.052-.187-.112-.383-.164-.57a26.437 26.437 0 00-.45-1.368 1.258 1.258 0 00-.233-.374.166.166 0 00-.121-.06z" fill="#808285"/></svg>