<svg xmlns="http://www.w3.org/2000/svg" width="164" height="17" viewBox="0 0 164 17" fill="none"><g clip-path="url(#clip0_2034_68012)"><path d="M13.0687 5.69538C13.0687 8.27559 12.046 9.94237 10.0007 10.6957L14.0801 16.4588H9.64473L6.07386 11.3172H3.59347V16.4588H0V0.344727H6.10777C8.61265 0.344727 10.4 0.768485 11.4697 1.616C12.5395 2.46352 13.0725 3.82331 13.0687 5.69538ZM8.73506 7.61641C8.97566 7.36617 9.15969 7.06717 9.27471 6.73964C9.38974 6.41212 9.43307 6.0637 9.40178 5.71797C9.44269 5.38663 9.40118 5.0503 9.28094 4.73884C9.16069 4.42739 8.96542 4.15043 8.71246 3.93254C7.96875 3.54459 7.13007 3.37607 6.29422 3.44663H3.59347V8.18142H6.22077C7.45249 8.18142 8.28871 8.00627 8.73506 7.61641Z" fill="#D02027"></path><path d="M26.226 14.6623C24.9115 15.9461 23.1421 16.6571 21.3047 16.6398C19.5801 16.7002 17.9018 16.0744 16.6377 14.8996C16.0181 14.2962 15.5334 13.5682 15.2159 12.7637C14.8984 11.9592 14.7552 11.0965 14.7958 10.2326C14.756 9.36738 14.903 8.50377 15.2267 7.70043C15.5503 6.89708 16.0432 6.17283 16.6716 5.57688C17.8711 4.44542 19.4639 3.82532 21.1126 3.84795C22.7047 3.80584 24.2556 4.35769 25.4632 5.39608C26.0607 5.92269 26.5319 6.57705 26.842 7.31063C27.152 8.04421 27.2929 8.83818 27.2543 9.63366V11.4812H18.2141C18.2643 11.8132 18.3819 12.1313 18.5597 12.416C18.7375 12.7007 18.9718 12.946 19.2481 13.1367C19.8368 13.5656 20.5481 13.7934 21.2765 13.7865C21.8338 13.8048 22.3888 13.705 22.9049 13.4937C23.421 13.2824 23.8865 12.9643 24.271 12.5604L26.226 14.6623ZM22.9093 7.31711C22.4197 6.91553 21.8022 6.70302 21.1691 6.7182C20.4913 6.71698 19.8313 6.93499 19.2876 7.33971C19.0125 7.53643 18.7822 7.78919 18.6117 8.08135C18.4413 8.3735 18.3347 8.69842 18.2989 9.03474H23.7682C23.7478 8.70378 23.6614 8.38026 23.5139 8.08329C23.3663 7.78633 23.1608 7.52196 22.9093 7.30581V7.31711Z" fill="#D02027"></path><path d="M39.0641 12.5998C39.0838 13.1609 38.9719 13.7188 38.7374 14.229C38.503 14.7391 38.1524 15.1873 37.7137 15.5378C36.7425 16.3034 35.5313 16.6998 34.2954 16.6565C33.3149 16.6465 32.3422 16.4806 31.4139 16.165C30.4345 15.8439 29.5214 15.3481 28.7188 14.7016L30.2386 12.5319C31.4029 13.4861 32.858 14.0143 34.3632 14.0292C34.736 14.0501 35.1063 13.9575 35.4254 13.7637C35.5458 13.6909 35.645 13.588 35.7134 13.4651C35.7818 13.3423 35.8169 13.2037 35.8153 13.0631C35.7973 12.8915 35.7361 12.7274 35.6372 12.586C35.5384 12.4447 35.4052 12.3308 35.2503 12.2551C34.7696 11.9582 34.2506 11.7281 33.7078 11.5714C33.0241 11.3567 32.4987 11.1703 32.1371 11.0064C31.7101 10.8159 31.2983 10.593 30.9053 10.3397C30.4581 10.0753 30.0909 9.69435 29.8432 9.23761C29.5954 8.78088 29.4763 8.26545 29.4985 7.74631C29.4837 7.1986 29.602 6.65549 29.8431 6.16348C30.0841 5.67147 30.4409 5.24523 30.8827 4.92125C31.9146 4.16318 33.1745 3.78043 34.4536 3.83643C36.0341 3.88426 37.5622 4.41464 38.8324 5.35631L37.5442 7.61636C36.6134 6.91975 35.4913 6.52534 34.3293 6.48633C33.2614 6.48633 32.7247 6.77449 32.7247 7.3621C32.727 7.52398 32.7764 7.68169 32.8666 7.81609C32.9569 7.95048 33.0842 8.05579 33.2332 8.11921C33.7778 8.38556 34.3451 8.603 34.9282 8.76897C35.7136 9.01193 36.2673 9.19838 36.6233 9.33398C37.0329 9.51079 37.4294 9.7166 37.8098 9.94985C38.2413 10.2345 38.5864 10.6321 38.8076 11.0993C39.0288 11.5666 39.1175 12.0856 39.0641 12.5998Z" fill="#D02027"></path><path d="M45.749 6.54854V12.1026C45.7234 12.5122 45.8547 12.9163 46.1162 13.2326C46.2249 13.3584 46.3593 13.4593 46.5104 13.5286C46.6615 13.5978 46.8258 13.6337 46.992 13.6338C47.3155 13.6308 47.6334 13.5495 47.9187 13.397C48.2041 13.2445 48.4483 13.0253 48.6305 12.758L49.9187 15.1763C49.0192 16.0838 47.8058 16.6116 46.5287 16.6509C45.9541 16.6702 45.3819 16.5691 44.8487 16.3541C44.3155 16.1392 43.8331 15.8152 43.4325 15.4029C43.0319 14.9906 42.7219 14.4991 42.5224 13.9599C42.323 13.4208 42.2384 12.8459 42.2741 12.2721V6.54854H40.8164V4.05684H42.2685V0.344727H45.749V4.05684H48.7435V6.54854H45.749Z" fill="#D02027"></path><path d="M62.2987 16.4593H59.0498V14.962C58.6718 15.4867 58.1745 15.9141 57.5988 16.2088C57.0231 16.5035 56.3856 16.6572 55.7389 16.657C54.5358 16.6982 53.3596 16.2961 52.4336 15.527C51.9943 15.1552 51.6454 14.6882 51.4134 14.1616C51.1814 13.6349 51.0723 13.0623 51.0945 12.4872C51.0649 11.9373 51.1766 11.389 51.4189 10.8945C51.6613 10.4 52.0261 9.97578 52.4788 9.66217C53.6159 8.97639 54.9327 8.64768 56.2587 8.71861H58.8408V8.65081C58.8408 7.32868 58.1421 6.66762 56.7446 6.66762C56.0943 6.67723 55.4504 6.7976 54.8405 7.02357C54.2336 7.23117 53.662 7.53031 53.1455 7.91064L51.603 5.6506C53.2211 4.47161 55.1778 3.8491 57.1797 3.87647C58.5026 3.81939 59.8051 4.2183 60.8692 5.00649C61.8184 5.7636 62.2987 6.95013 62.2987 8.58301V16.4593ZM58.8012 11.7358V11.1312H56.6316C55.253 11.1312 54.558 11.5663 54.558 12.4251C54.5476 12.6237 54.5877 12.8217 54.6747 13.0006C54.7616 13.1794 54.8926 13.3333 55.0552 13.4478C55.4776 13.7158 55.9743 13.8424 56.4734 13.8094C57.0632 13.8157 57.6368 13.6159 58.095 13.2443C58.3229 13.0661 58.5057 12.8365 58.6284 12.5744C58.7511 12.3123 58.8103 12.025 58.8012 11.7358V11.7358Z" fill="#D02027"></path><path d="M73.4517 10.7407V4.05664H76.9322V16.4869H73.4517V14.8483C73.0932 15.4099 72.5973 15.8706 72.011 16.187C71.4247 16.5034 70.7674 16.6649 70.1012 16.6564C68.837 16.6937 67.6083 16.2354 66.6772 15.3795C65.7544 14.5244 65.293 13.2607 65.293 11.5882V4.05664H68.7734V10.8368C68.7734 12.7465 69.474 13.6957 70.8696 13.6957C71.204 13.6996 71.5357 13.6354 71.8445 13.5072C72.1534 13.379 72.433 13.1894 72.6664 12.9499C72.9425 12.6557 73.1548 12.3076 73.2899 11.9274C73.4251 11.5472 73.4802 11.1432 73.4517 10.7407Z" fill="#D02027"></path><path d="M86.729 7.10261C86.2836 7.07205 85.8377 7.15626 85.4341 7.34718C85.0305 7.5381 84.6827 7.82935 84.4238 8.19308C83.8789 9.05634 83.6126 10.0662 83.661 11.0859V16.4592H80.2031V4.02895H83.661V5.66748C84.1424 5.13642 84.7168 4.69791 85.356 4.3736C85.9825 4.02868 86.681 3.83518 87.3957 3.80859V7.06306L86.729 7.10261Z" fill="#D02027"></path><path d="M100.094 16.4591H96.845V14.9618C96.4685 15.4868 95.9723 15.9144 95.3974 16.2092C94.8226 16.504 94.1857 16.6575 93.5397 16.6568C92.3365 16.6991 91.1598 16.2969 90.2344 15.5268C89.7951 15.155 89.4462 14.6881 89.2142 14.1614C88.9822 13.6347 88.8731 13.0621 88.8953 12.4871C88.8657 11.9372 88.9774 11.3889 89.2197 10.8944C89.462 10.3999 89.8269 9.97562 90.2796 9.66201C91.4167 8.97623 92.7335 8.64752 94.0595 8.71844H96.6585V8.65065C96.6585 7.32852 95.9579 6.66746 94.5567 6.66746C93.9081 6.67627 93.2659 6.79667 92.6582 7.02341C92.0513 7.23101 91.4797 7.53015 90.9632 7.91048L89.4207 5.65044C91.0388 4.47145 92.9955 3.84894 94.9974 3.87631C96.3202 3.82015 97.6224 4.21897 98.6869 5.00633C99.6361 5.76344 100.111 6.94997 100.111 8.58285L100.094 16.4591ZM96.619 11.7356V11.131H94.4493C93.0651 11.131 92.3757 11.5661 92.3757 12.4249C92.3653 12.6235 92.4055 12.8215 92.4924 13.0004C92.5794 13.1793 92.7103 13.3331 92.873 13.4476C93.2953 13.7156 93.792 13.8423 94.2911 13.8092C94.8808 13.8146 95.4541 13.6149 95.9127 13.2442C96.1407 13.0659 96.3234 12.8364 96.4461 12.5743C96.5688 12.3122 96.628 12.0249 96.619 11.7356V11.7356Z" fill="#D02027"></path><path d="M106.708 9.5429V16.4586H103.25V4.02839H106.708V5.41267C107.154 4.91874 107.698 4.52227 108.304 4.24811C108.911 3.97394 109.568 3.82797 110.234 3.81934C110.848 3.80634 111.459 3.92288 112.025 4.16138C112.592 4.39988 113.102 4.75499 113.522 5.20361C113.974 5.70161 114.323 6.28377 114.55 6.91684C114.777 7.5499 114.877 8.22145 114.844 8.89313V16.4304H111.386V9.42424C111.386 7.51451 110.691 6.56529 109.29 6.56529C108.954 6.56284 108.621 6.62756 108.311 6.75563C108 6.88371 107.718 7.07258 107.482 7.31111C107.206 7.60969 106.995 7.96206 106.862 8.34612C106.728 8.73018 106.676 9.13764 106.708 9.5429V9.5429Z" fill="#D02027"></path><path d="M121.917 6.54854V12.1026C121.891 12.5133 122.025 12.9182 122.29 13.2326C122.398 13.3599 122.532 13.4618 122.683 13.5312C122.835 13.6005 122.999 13.6356 123.166 13.6338C123.489 13.6303 123.806 13.5489 124.09 13.3964C124.374 13.2439 124.618 13.0249 124.799 12.758L126.093 15.1763C125.193 16.0828 123.98 16.6105 122.703 16.6509C122.129 16.6684 121.557 16.5661 121.025 16.3506C120.492 16.1351 120.011 15.811 119.61 15.3991C119.21 14.9871 118.9 14.4963 118.7 13.958C118.5 13.4196 118.414 12.8455 118.448 12.2721V6.54854H116.996V4.05684H118.443V0.344727H121.923V4.05684H124.906V6.54854H121.917Z" fill="#D02027"></path><path d="M135.979 8.00621L136.075 7.9497C136.484 7.7211 136.849 7.42279 137.154 7.06829C137.454 6.71668 137.686 6.31243 137.838 5.87611C137.994 5.4177 138.072 4.93648 138.07 4.45228C138.079 3.83267 137.949 3.21884 137.691 2.65555C137.439 2.12064 137.08 1.64358 136.635 1.25433C136.17 0.855307 135.633 0.5502 135.053 0.355957C133.891 -0.0190641 132.647 -0.0562867 131.465 0.248612C130.964 0.373077 130.481 0.56305 130.03 0.813623C129.61 1.06423 129.23 1.37445 128.9 1.73458C128.567 2.08737 128.298 2.49441 128.103 2.93806L127.973 3.22057L129.38 4.37884L129.6 3.88727C129.872 3.27359 130.328 2.76 130.905 2.41825C131.417 2.13191 131.981 1.95222 132.563 1.89007C133.146 1.82792 133.735 1.88459 134.295 2.05664C134.651 2.16783 134.982 2.34834 135.267 2.58776C135.535 2.81657 135.75 3.0997 135.9 3.41832C136.056 3.7743 136.133 4.15978 136.126 4.54834C136.142 4.89984 136.077 5.2503 135.936 5.57263C135.795 5.89497 135.582 6.18053 135.312 6.40723C134.592 6.93116 133.709 7.18334 132.821 7.11914H131.838V8.91022H132.776C133.756 8.8472 134.725 9.15133 135.493 9.76339C135.803 10.0498 136.046 10.4006 136.205 10.7911C136.364 11.1816 136.435 11.6023 136.414 12.0234C136.439 12.4368 136.372 12.8505 136.218 13.2352C136.065 13.6199 135.829 13.9662 135.527 14.2496C134.823 14.8211 133.93 15.1092 133.024 15.0575C132.22 15.0843 131.425 14.8888 130.725 14.4925C130.137 14.1497 129.679 13.6237 129.419 12.9953L129.21 12.4924L127.719 13.7015L127.854 13.9897C128.278 14.9005 128.983 15.6511 129.866 16.1311C130.827 16.6533 131.908 16.9162 133.002 16.8938C133.735 16.9001 134.465 16.7836 135.16 16.5492C135.783 16.3361 136.359 16.0042 136.855 15.5717C137.336 15.1496 137.721 14.6295 137.985 14.0462C138.262 13.4222 138.401 12.7456 138.392 12.063C138.421 10.9791 138.064 9.92001 137.386 9.07408C137 8.62018 136.52 8.25578 135.979 8.00621V8.00621Z" fill="#D02027"></path><path d="M150.107 7.05142C149.579 6.52397 148.956 6.10208 148.271 5.8084C147.017 5.27793 145.617 5.20591 144.315 5.60499C143.799 5.7684 143.309 6.00837 142.863 6.3169C142.467 6.5915 142.108 6.91626 141.796 7.28307C141.848 6.80365 141.931 6.32806 142.044 5.85925C142.224 5.06457 142.525 4.30231 142.937 3.5992C143.261 3.05623 143.713 2.60049 144.253 2.27142C144.768 1.97333 145.354 1.81916 145.948 1.82507C146.715 1.81801 147.465 2.04897 148.095 2.48613C148.721 2.90738 149.196 3.51693 149.451 4.22636L149.644 4.74617L151.113 3.61615L150.988 3.328C150.586 2.33906 149.895 1.49436 149.005 0.904099C148.099 0.3058 147.034 -0.0053246 145.948 0.0113814C145.069 0.00288202 144.201 0.218731 143.428 0.638544C142.621 1.10061 141.946 1.76205 141.468 2.55958C140.888 3.53181 140.474 4.59335 140.242 5.70104C139.932 7.14905 139.786 8.62742 139.807 10.1081C139.794 11.0683 139.945 12.0236 140.253 12.9332C140.522 13.7265 140.947 14.4583 141.502 15.0859C142.036 15.6751 142.691 16.1416 143.423 16.4532C144.525 16.9223 145.741 17.0573 146.919 16.8413C148.097 16.6253 149.186 16.068 150.05 15.2384C150.602 14.7049 151.04 14.0646 151.336 13.3564C151.632 12.6482 151.781 11.8871 151.774 11.1195C151.779 10.3432 151.625 9.57407 151.322 8.85945C151.033 8.18614 150.621 7.57287 150.107 7.05142V7.05142ZM144.327 7.44692C144.819 7.23553 145.35 7.12652 145.886 7.12652C146.422 7.12652 146.953 7.23553 147.446 7.44692C147.926 7.65376 148.363 7.94892 148.734 8.31704C149.099 8.68657 149.394 9.11921 149.604 9.59397C149.811 10.0827 149.918 10.6083 149.918 11.1393C149.918 11.6703 149.811 12.1958 149.604 12.6846C149.394 13.1593 149.099 13.592 148.734 13.9615C148.166 14.5239 147.445 14.9056 146.66 15.0584C145.876 15.2113 145.064 15.1284 144.327 14.8203C143.846 14.6222 143.41 14.3303 143.044 13.9615C142.675 13.5954 142.38 13.1619 142.174 12.6846C141.958 12.1972 141.849 11.6695 141.852 11.1364C141.848 10.6052 141.958 10.0792 142.174 9.59397C142.593 8.63093 143.363 7.86333 144.327 7.44692V7.44692Z" fill="#D02027"></path><path d="M163.566 9.14173C163.288 8.50143 162.883 7.92463 162.374 7.4467C161.866 6.95772 161.267 6.57371 160.611 6.31668C159.227 5.77701 157.69 5.77701 156.306 6.31668C156.021 6.43718 155.747 6.58081 155.487 6.74609L156.441 1.96045H163.222V0.101562H154.927L154.865 0.42927C154.566 1.9096 154.3 3.25432 154.04 4.46909L153.724 6.03417C153.622 6.55963 153.526 7.03424 153.447 7.46365C153.368 7.89306 153.294 8.25467 153.226 8.59367C153.159 8.93268 153.114 9.13044 153.097 9.24344L153.029 9.70674H154.78L154.905 9.53159C155.281 8.97703 155.795 8.52935 156.396 8.23207C156.919 7.97319 157.489 7.82226 158.071 7.78829C158.654 7.75431 159.237 7.83799 159.786 8.03432C160.219 8.19938 160.615 8.44907 160.95 8.76882C161.282 9.09166 161.549 9.4753 161.736 9.89885C161.933 10.3592 162.031 10.8558 162.024 11.3566C162.033 11.8781 161.933 12.3959 161.73 12.8765C161.536 13.3199 161.26 13.7226 160.916 14.063C160.569 14.3983 160.158 14.6597 159.707 14.8314C159.222 15.015 158.706 15.1069 158.187 15.1026C157.389 15.1051 156.606 14.8839 155.927 14.4641C155.256 14.0517 154.707 13.4662 154.34 12.7691L154.147 12.3905L152.645 13.2663L152.808 13.6053C153.282 14.6023 154.031 15.4432 154.967 16.0292C155.938 16.6432 157.066 16.9631 158.216 16.9502C158.97 16.955 159.719 16.821 160.425 16.5547C161.11 16.3048 161.738 15.9206 162.272 15.4247C162.801 14.9228 163.229 14.3244 163.532 13.6618C163.836 12.9539 163.995 12.1925 164.001 11.4221C164.007 10.6518 163.859 9.88808 163.566 9.17563V9.14173Z" fill="#D02027"></path></g><defs><clipPath id="clip0_2034_68012"><rect width="164" height="16.9221" fill="white"></rect></clipPath></defs></svg>